<svg width="51" height="51" viewBox="0 0 51 51" fill="none" xmlns="http://www.w3.org/2000/svg">
<path fill-rule="evenodd" clip-rule="evenodd" d="M16.1757 37.0653H19.1728V29.7641C19.1728 29.3357 19.5201 28.9884 19.9485 28.9884C20.3769 28.9884 20.7242 29.3357 20.7242 29.7641V37.0653H28.9503C29.2664 35.7542 29.8193 34.5355 30.5611 33.4567V29.7641C30.5611 29.3357 30.9084 28.9884 31.3368 28.9884C31.7652 28.9884 32.1125 29.3357 32.1125 29.7641V31.656C33.2382 30.6047 34.5867 29.7889 36.0794 29.2872V27.5846C36.0794 25.262 34.0108 23.9432 31.6572 23.3593C27.7052 22.3789 23.6986 22.3127 19.6285 23.3593C17.2805 23.9629 15.2062 25.2607 15.2062 27.5846V36.0957C15.2061 36.6298 15.6417 37.0653 16.1757 37.0653ZM46.6599 31.217C47.1281 29.4221 47.3621 27.5744 47.3621 25.718C47.3621 13.7224 37.6384 3.99865 25.6427 3.99865C13.6471 3.99865 3.92333 13.7224 3.92333 25.718C3.92333 37.7137 13.647 47.4375 25.6427 47.4375C27.4991 47.4375 29.3468 47.2033 31.1418 46.7352C31.9388 47.6781 32.8914 48.4851 33.9599 49.117L33.4972 49.2712C30.9634 50.1158 28.3133 50.5402 25.6427 50.5402C11.9343 50.5402 0.820557 39.4265 0.820557 25.718C0.820557 12.0096 11.9343 0.895874 25.6427 0.895874C39.3512 0.895874 50.4649 12.0096 50.4649 25.718C50.4649 28.3886 50.0404 31.0387 49.1959 33.5725L49.0417 34.0352C48.4097 32.9667 47.6028 32.0141 46.6599 31.217ZM33.4336 40.7371C33.0088 40.3124 33.0088 39.6237 33.4336 39.199C33.8582 38.7742 34.547 38.7742 34.9717 39.199L37.6663 41.8935L43.1303 36.375C43.5527 35.9503 44.2394 35.9484 44.6642 36.3708C45.0889 36.7932 45.0908 37.48 44.6684 37.9047C42.5916 40.0023 40.5237 42.1159 38.437 44.2025C38.0122 44.6273 37.3236 44.6273 36.8989 44.2025L33.4336 40.7371ZM39.5555 30.2727C44.7236 30.2727 48.9135 34.4626 48.9135 39.6308C48.9135 44.799 44.7236 48.9888 39.5555 48.9888C34.3873 48.9888 30.1974 44.799 30.1974 39.6307C30.1974 34.4626 34.3873 30.2727 39.5555 30.2727ZM25.6427 10.4921C23.0489 10.4921 20.9462 11.9703 20.9462 15.3794C20.9462 18.7884 23.0487 21.5521 25.6427 21.5521C28.2365 21.5521 30.3393 18.7884 30.3393 15.3794C30.3393 11.9704 28.2365 10.4921 25.6427 10.4921Z" fill="#01AE9B"/>
</svg>
