<svg width="109" height="109" viewBox="0 0 109 109" fill="none" xmlns="http://www.w3.org/2000/svg">
<g filter="url(#filter0_d_26_412)">
<circle cx="54.3939" cy="46.7089" r="29.8985" transform="rotate(-15 54.3939 46.7089)" fill="#01AE9B"/>
</g>
<g clip-path="url(#clip0_26_412)">
<path d="M37.0478 41.3734C38.9058 41.0368 42.7696 40.3367 43.9905 41.0416C44.2936 41.1036 44.3653 41.3708 44.4012 41.5046C44.8774 44.0485 44.751 48.7435 44.681 51.3446C44.6533 52.371 44.6345 53.0713 44.6649 53.1848C44.6028 53.4881 44.3713 53.6934 44.1038 53.7651L40.0928 54.8398C39.6917 54.9473 39.3526 54.7515 39.2451 54.3504L36.0208 42.3172C35.985 42.1835 36.047 41.8803 36.1449 41.7107C36.2427 41.5412 36.3765 41.5054 36.5101 41.4696C36.6605 41.4436 36.8418 41.4107 37.0478 41.3734Z" fill="#FEFEFE"/>
<path d="M56.2958 40.1701C57.1853 40.2744 58.1469 40.3871 59.1564 40.4171C60.1473 41.4413 62.9698 45.5573 64.6222 47.9806L64.4886 48.0164C63.2302 47.0639 60.9285 45.961 58.6625 44.9918C58.0333 44.6762 57.4104 44.3845 56.8369 44.1159C56.0525 43.7485 55.3605 43.4244 54.8708 43.1417C54.8039 43.1596 54.6947 43.153 54.5855 43.1465C54.4763 43.1399 54.367 43.1334 54.3002 43.1513L54.0327 43.2229C53.668 43.4638 53.4366 43.6689 53.2053 43.874L53.2043 43.8748C53.0897 43.9505 53.0014 44.0191 52.9219 44.081C52.7478 44.2163 52.6153 44.3193 52.3401 44.393C52.0727 44.4647 51.9748 44.6342 51.8769 44.8037C51.3351 46.5253 50.3634 46.6424 49.6232 46.5541C49.32 46.492 49.32 46.492 49.2842 46.3583C49.0072 45.8593 49.3174 44.3431 50.0026 43.1565C51.5686 40.444 52.4949 39.6226 55.1882 40.0474C55.5427 40.0818 55.9125 40.1252 56.2958 40.1701Z" fill="#FEFEFE"/>
<path d="M67.6199 34.5668C63.1254 35.7712 60.5857 37.5163 59.8845 37.9982C59.7722 38.0753 59.7071 38.1201 59.6886 38.125L59.395 38.6336C59.4308 38.7673 59.5025 39.0347 59.672 39.1326C60.8324 40.2546 65.4769 46.8918 66.3796 48.6561C66.5849 48.8877 66.924 49.0834 67.1914 49.0118L71.2025 47.937C71.6036 47.8295 71.7993 47.4904 71.6919 47.0893L68.4676 35.0561C68.3601 34.6551 68.0211 34.4594 67.6199 34.5668Z" fill="#FEFEFE"/>
<path d="M58.5087 46.6227C60.769 47.6074 63.1268 48.6347 63.9108 49.6042C64.3216 50.0673 64.1616 50.5401 64.0638 50.7096C63.8322 50.9149 63.6006 51.1203 63.2974 51.0583L58.381 48.2198C58.042 48.024 57.6409 48.1316 57.4451 48.4706C57.2494 48.8096 57.3568 49.2107 57.6959 49.4065L62.4427 52.1471C62.3994 52.3585 62.2737 52.5223 62.1684 52.6596C62.1227 52.7192 62.0808 52.7739 62.0512 52.8252C61.6859 53.0663 61.1511 53.2096 60.9815 53.1118L56.7434 50.6649C56.4044 50.4691 56.0033 50.5766 55.8075 50.9156C55.6117 51.2547 55.7192 51.6558 56.0583 51.8515L59.9574 54.1027C59.9312 54.5397 59.8691 54.8429 59.5038 55.0841C59.437 55.102 59.3724 55.1283 59.3077 55.1545C59.1139 55.2334 58.9201 55.3122 58.6658 55.1653L55.2752 53.2078C54.9362 53.012 54.5351 53.1195 54.3393 53.4586C54.1435 53.7976 54.251 54.1987 54.5901 54.3945L57.3026 55.9605L56.9015 56.068C56.5004 56.1755 55.6265 56.1231 55.1538 55.9631C55.0729 55.9307 54.9466 55.8809 54.7814 55.8158C53.6333 55.3635 50.605 54.1706 47.8833 52.8957C47.5727 52.7906 47.1581 52.5279 46.718 52.2491C46.488 52.1034 46.2511 51.9533 46.0184 51.819C46.1853 49.768 46.1899 46.041 46.0081 43.2236L48.6822 42.5071C47.997 43.6938 47.2952 45.8881 47.9209 47.1534C48.1979 47.6524 48.7423 48.0798 49.4467 48.0343C51.0607 48.1751 52.2544 47.282 52.9658 45.6584C53.3572 45.5535 53.5146 45.4345 53.7141 45.2837C53.7871 45.2285 53.8658 45.169 53.9637 45.1044C53.9436 45.0293 54.0191 44.9737 54.1066 44.9095C54.1748 44.8593 54.2503 44.8038 54.2932 44.7295C54.6585 44.8983 55.0658 45.0758 55.5013 45.2655C56.2359 45.5854 57.0506 45.9404 57.8795 46.348C58.0875 46.4391 58.2977 46.5307 58.5087 46.6227Z" fill="#FEFEFE"/>
</g>
<defs>
<filter id="filter0_d_26_412" x="0.487976" y="0.802979" width="107.812" height="107.812" filterUnits="userSpaceOnUse" color-interpolation-filters="sRGB">
<feFlood flood-opacity="0" result="BackgroundImageFix"/>
<feColorMatrix in="SourceAlpha" type="matrix" values="0 0 0 0 0 0 0 0 0 0 0 0 0 0 0 0 0 0 127 0" result="hardAlpha"/>
<feOffset dy="8"/>
<feGaussianBlur stdDeviation="12"/>
<feColorMatrix type="matrix" values="0 0 0 0 0.403922 0 0 0 0 0.176471 0 0 0 0 0.737255 0 0 0 0.2 0"/>
<feBlend mode="normal" in2="BackgroundImageFix" result="effect1_dropShadow_26_412"/>
<feBlend mode="normal" in="SourceGraphic" in2="effect1_dropShadow_26_412" result="shape"/>
</filter>
<clipPath id="clip0_26_412">
<rect width="33.2205" height="33.2205" fill="white" transform="translate(34.0505 34.9637) rotate(-15)"/>
</clipPath>
</defs>
</svg>
