<svg width="52" height="44" viewBox="0 0 52 44" fill="none" xmlns="http://www.w3.org/2000/svg">
<path d="M51.0147 12.7184V39.8404C51.015 40.7686 50.6464 41.6588 49.99 42.3152C49.3336 42.9715 48.4434 43.3402 47.5152 43.3399H3.77006C2.8418 43.3402 1.95159 42.9715 1.29519 42.3152C0.638884 41.6589 0.270195 40.7686 0.270493 39.8405V12.7184C0.270195 11.7902 0.638884 10.9 1.29519 10.2436C1.95159 9.58716 2.8418 9.21857 3.77006 9.21887H19.5183" fill="#B9FFF7"/>
<path d="M50.1444 7.32597C50.6727 7.57662 51.011 8.10765 51.0149 8.6925V16.7131C50.9213 24.036 47.454 30.9062 41.6184 35.3311L36.4298 39.4385C35.747 39.9744 34.7863 39.9744 34.1034 39.4385L28.9148 35.3311C23.0793 30.9061 19.6119 24.036 19.5184 16.7131V8.6925C19.5223 8.10765 19.8606 7.57672 20.3889 7.32597L33.858 0.792451C34.7479 0.362314 35.7854 0.362314 36.6751 0.792451L50.1444 7.32597Z" fill="#01AE9B"/>
<path d="M35.2666 24.967C39.6153 24.967 43.1407 21.4573 43.1407 17.1279C43.1407 12.7985 39.6153 9.28882 35.2666 9.28882C30.9179 9.28882 27.3925 12.7985 27.3925 17.1279C27.3925 21.4573 30.9179 24.967 35.2666 24.967Z" fill="white"/>
<path d="M33.8348 20.5131C33.6027 20.5134 33.3801 20.4211 33.2163 20.2568L31.7842 18.8248C31.4426 18.4832 31.4426 17.9293 31.7842 17.5877C32.1259 17.246 32.6798 17.246 33.0214 17.5877L33.8348 18.401L37.5113 14.7246C37.8534 14.3859 38.4049 14.3872 38.7453 14.7276C39.0858 15.0681 39.0872 15.6195 38.7485 15.9617L34.4535 20.2567C34.2895 20.4211 34.0669 20.5134 33.8348 20.5131Z" fill="#01AE9B"/>
<path d="M18.6435 35.4659H4.84333C4.36016 35.4659 3.96838 35.0743 3.96838 34.591C3.96838 34.1077 4.36007 33.7161 4.84333 33.7161H18.6435C19.1266 33.7161 19.5184 34.1077 19.5184 34.591C19.5184 35.0743 19.1267 35.4659 18.6435 35.4659Z" fill="#3F5C6C"/>
<path d="M11.6443 38.9656H4.84333C4.36016 38.9656 3.96838 38.5739 3.96838 38.0906C3.96838 37.6074 4.36007 37.2157 4.84333 37.2157H11.6443C12.1275 37.2157 12.5193 37.6074 12.5193 38.0906C12.5193 38.5739 12.1275 38.9656 11.6443 38.9656Z" fill="#3F5C6C"/>
<path d="M17.2328 27.8868L14.1939 26.3889C13.803 26.1981 13.5546 25.8016 13.5532 25.3668V24.1912C13.6552 24.0747 13.7512 23.9531 13.8408 23.8268C14.2501 23.2534 14.5686 22.6205 14.7854 21.9502C15.1833 21.833 15.458 21.4696 15.4621 21.0548V19.8002C15.4606 19.5334 15.3448 19.2803 15.144 19.1048V17.291C15.144 17.291 15.5216 14.4681 11.6444 14.4681C7.76684 14.4681 8.14484 17.291 8.14484 17.291V19.1048C7.94404 19.2802 7.82808 19.5334 7.8267 19.8002V21.0548C7.82848 21.3759 7.99449 21.6738 8.26665 21.8442C8.47884 22.6995 8.87112 23.4997 9.41741 24.1912V25.3376C9.41622 25.7578 9.18411 26.1433 8.81324 26.3409L5.97503 27.8671C5.15876 28.302 4.64775 29.1506 4.64517 30.0755V31.0913H18.6435V30.1369C18.6405 29.1793 18.0934 28.3068 17.2328 27.8868Z" fill="#3F5C6C"/>
</svg>
