<svg width="52" height="45" viewBox="0 0 52 45" fill="none" xmlns="http://www.w3.org/2000/svg">
<path d="M18.016 20.2671H11.0637C10.236 20.2671 9.53232 19.9775 8.9529 19.3981C8.37381 18.8187 8.08389 18.1152 8.08389 17.2873V16.2946C8.08389 14.1012 8.85996 12.2288 10.412 10.6767C11.9639 9.12523 13.8366 8.34916 16.0298 8.34916H18.016C18.5539 8.34916 19.0193 8.15251 19.4126 7.75952C19.8057 7.36632 20.0023 6.90094 20.0023 6.36294V2.38986C20.0023 1.85197 19.8056 1.38616 19.4126 0.992956C19.0194 0.600301 18.554 0.40332 18.016 0.40332H16.0298C13.8777 0.40332 11.8245 0.822719 9.86899 1.66032C7.91365 2.49846 6.22236 3.63142 4.79447 5.05931C3.36669 6.48655 2.23406 8.17794 1.39602 10.1335C0.557988 12.0888 0.138916 14.1426 0.138916 16.2945V38.1439C0.138916 39.8001 0.718007 41.2063 1.87673 42.3655C3.03557 43.524 4.44291 44.1032 6.09811 44.1032H18.0168C19.6719 44.1032 21.0788 43.524 22.2377 42.3655C23.3963 41.2063 23.9757 39.8001 23.9757 38.1439V26.2263C23.9757 24.5704 23.3963 23.1642 22.237 22.0049C21.0786 20.8465 19.6711 20.2671 18.016 20.2671Z" fill="#01AE9B"/>
<path d="M50.0474 22.0049C48.889 20.8465 47.482 20.2671 45.8265 20.2671H38.8742C38.047 20.2671 37.3426 19.9775 36.7642 19.3981C36.1846 18.8187 35.8952 18.1152 35.8952 17.2873V16.2946C35.8952 14.1012 36.6712 12.2288 38.2225 10.6767C39.7739 9.12523 41.6465 8.34916 43.8408 8.34916H45.8266C46.3646 8.34916 46.8303 8.15251 47.2233 7.75952C47.616 7.36632 47.8133 6.90094 47.8133 6.36294V2.38986C47.8133 1.85197 47.6161 1.38616 47.2233 0.992956C46.8304 0.600301 46.3647 0.40332 45.8266 0.40332H43.8408C41.6875 0.40332 39.6348 0.822719 37.6786 1.66032C35.7236 2.49846 34.0329 3.63142 32.605 5.05931C31.1771 6.48655 30.0439 8.17794 29.2062 10.1335C28.3684 12.0888 27.9488 14.1426 27.9488 16.2945V38.1439C27.9488 39.8001 28.5284 41.2063 29.6868 42.3655C30.8453 43.524 32.2523 44.1032 33.9078 44.1032H45.8258C47.4813 44.1032 48.8882 43.524 50.0466 42.3655C51.2059 41.2063 51.7844 39.8001 51.7844 38.1439V26.2263C51.7845 24.5703 51.2059 23.1642 50.0474 22.0049Z" fill="#01AE9B"/>
</svg>
