<svg width="51" height="51" viewBox="0 0 51 51" fill="none" xmlns="http://www.w3.org/2000/svg">
<path d="M22.7227 9.36749H28.5627C29.3687 9.36749 30.0228 8.7134 30.0228 7.90747V2.06743C30.0228 1.26151 29.3687 0.607422 28.5627 0.607422H22.7227C21.9168 0.607422 21.2627 1.26151 21.2627 2.06743V7.90747C21.2627 8.7134 21.9168 9.36749 22.7227 9.36749Z" fill="#01AE9B"/>
<path d="M46.1801 29.905C48.5992 29.905 50.5602 27.944 50.5602 25.5249C50.5602 23.1059 48.5992 21.1449 46.1801 21.1449C43.7611 21.1449 41.8001 23.1059 41.8001 25.5249C41.8001 27.944 43.7611 29.905 46.1801 29.905Z" fill="#B9FFF7"/>
<path d="M5.10519 29.905C7.52421 29.905 9.48522 27.944 9.48522 25.5249C9.48522 23.1059 7.52421 21.1449 5.10519 21.1449C2.68617 21.1449 0.725159 23.1059 0.725159 25.5249C0.725159 27.944 2.68617 29.905 5.10519 29.905Z" fill="#3F5C6C"/>
<path d="M33.7751 8.42257C36.8722 9.89728 39.512 12.197 41.4043 15.0315L39.8329 14.8743C39.0311 14.7945 38.3152 15.3793 38.2349 16.1817C38.1547 16.9841 38.7401 17.6996 39.5424 17.7799L43.9188 18.2176C44.5602 18.2898 45.2084 17.8869 45.4298 17.281L46.985 13.1667C47.2701 12.4125 46.8897 11.57 46.1355 11.2848C45.3815 10.9997 44.5387 11.3801 44.2536 12.1343L43.7932 13.3523C41.6125 10.1092 38.5825 7.47756 35.0305 5.78618C34.3023 5.43958 33.4313 5.74861 33.0846 6.47677C32.738 7.20473 33.0471 8.07587 33.7751 8.42257Z" fill="#01AE9B"/>
<path d="M44.6907 32.9669C43.9627 32.6202 43.0915 32.9294 42.7449 33.6574C41.2702 36.7545 38.9705 39.3943 36.136 41.2866L36.2932 39.7152C36.3729 38.9134 35.7881 38.1975 34.9857 38.1172C34.1834 38.037 33.4679 38.6224 33.3876 39.4247L32.9499 43.8011C32.8777 44.4425 33.2805 45.0908 33.8864 45.3121L38.0007 46.8673C38.755 47.1524 39.5975 46.7721 39.8827 46.0178C40.1678 45.2638 39.7874 44.421 39.0332 44.1359L37.8151 43.6755C41.0583 41.4948 43.6899 38.4648 45.3813 34.9128C45.7279 34.1845 45.4189 33.3136 44.6907 32.9669Z" fill="#01AE9B"/>
<path d="M17.5104 42.6271C14.4132 41.1524 11.7734 38.8527 9.88112 36.0182L11.4525 36.1754C12.2543 36.2551 12.9702 35.6703 13.0505 34.8679C13.1307 34.0656 12.5453 33.3501 11.743 33.2698L7.3666 32.8321C6.72526 32.7599 6.07702 33.1627 5.85558 33.7686L4.30038 37.8829C4.01529 38.6372 4.39567 39.4797 5.14991 39.7649C5.90396 40.05 6.74667 39.6696 7.03186 38.9154L7.49225 37.6973C9.67292 40.9405 12.7029 43.5721 16.2549 45.2635C16.9831 45.6101 17.8541 45.3011 18.2008 44.5729C18.5475 43.8449 18.2383 42.9738 17.5104 42.6271Z" fill="#B9FFF7"/>
<path d="M6.59463 18.0832C7.32259 18.4299 8.19382 18.1206 8.54043 17.3927C10.0151 14.2955 12.3148 11.6557 15.1493 9.76345L14.9921 11.3348C14.9124 12.1366 15.4972 12.8525 16.2996 12.9328C17.1019 13.013 17.8174 12.4277 17.8977 11.6253L18.3354 7.24892C18.4077 6.60759 18.0048 5.95924 17.3989 5.73791L13.2846 4.1827C12.5303 3.89761 11.6878 4.27799 11.4026 5.03223C11.1175 5.78628 11.4979 6.629 12.2522 6.91419L13.4702 7.37458C10.227 9.55525 7.59542 12.5853 5.90404 16.1373C5.55744 16.8655 5.86647 17.7365 6.59463 18.0832Z" fill="#01AE9B"/>
<path d="M25.6427 23.6591C28.115 23.6591 30.1201 21.655 30.1201 19.1817C30.1201 16.7094 28.115 14.7053 25.6427 14.7053C23.1704 14.7053 21.1653 16.7094 21.1653 19.1817C21.1653 21.655 23.1704 23.6591 25.6427 23.6591Z" fill="#01AE9B"/>
<path d="M28.5627 41.6824H22.7227C21.9168 41.6824 21.2627 42.3365 21.2627 43.1424V48.9824C21.2627 49.7884 21.9168 50.4424 22.7227 50.4424H28.5627C29.3687 50.4424 30.0228 49.7884 30.0228 48.9824V43.1424C30.0228 42.3365 29.3687 41.6824 28.5627 41.6824Z" fill="#01AE9B"/>
<path d="M34.394 35.3711V34.8436C34.394 30.01 30.4753 26.0923 25.6427 26.0923C20.81 26.0923 16.8914 30.01 16.8914 34.8436V35.3711C16.8914 36.178 17.5454 36.8312 18.3514 36.8312H25.6427H32.934C33.7399 36.8312 34.394 36.178 34.394 35.3711Z" fill="#01AE9B"/>
</svg>
