<svg width="153" height="52" viewBox="0 0 153 52" fill="none" xmlns="http://www.w3.org/2000/svg">
<path d="M6.35826 50.8411C2.58046 48.6144 1.32537 43.7483 3.55202 39.9705L21.5904 9.3854C23.817 5.60761 28.6831 4.35251 32.4609 6.57916C36.2387 8.80581 32.39 11.2613 30.1634 15.0391L21.1442 30.3317L12.125 45.6242C9.89837 49.402 10.1319 53.0677 6.35826 50.8411Z" fill="#364D9D"/>
<path d="M48.5436 4.8864C43.5816 -1.31402 32.9112 -1.41827 22.3909 3.8523C30.6846 0.303843 38.7072 0.670781 42.5559 5.47851C47.8223 12.0584 43.2606 24.4592 32.365 33.1782C21.4694 41.8971 8.37224 43.6317 3.10584 37.0519C0.683212 34.0246 0.345462 29.759 1.7465 25.1931C-0.763692 31.4561 -0.659448 37.4814 2.6555 41.6219C8.91847 49.4486 24.2715 47.5722 36.9434 37.4272C49.6153 27.2821 54.8108 12.713 48.5436 4.8864Z" fill="#01AE9B"/>
<path d="M48.0349 30.9099C45.604 34.2415 42.5934 37.3814 39.1283 40.1543C38.2026 40.8965 37.2561 41.597 36.3012 42.26L39.7038 48.0351C41.9304 51.8129 46.7965 53.068 50.5743 50.8413C54.3521 48.6147 55.6072 43.7486 53.3806 39.9708L48.0349 30.9099Z" fill="#30458F"/>
<path d="M35.2797 9.41459C35.2713 9.39791 35.263 9.3854 35.2505 9.36872C34.5917 8.2554 33.6493 7.28385 32.4567 6.57916C28.6789 4.35251 23.8128 5.60761 21.5862 9.3854L21.3694 9.74817L15.5275 19.6597C16.2072 18.6798 19.5055 14.4183 22.6286 19.0759L28.4663 28.9749L29.5963 30.893C29.7923 30.7429 29.9882 30.5969 30.1801 30.4427C34.9461 26.6273 38.4528 21.8696 40.1333 17.5039L35.2797 9.41459Z" fill="#30458F"/>
<path d="M63.4582 24.084C62.8403 24.084 62.3083 23.9896 61.862 23.8008C61.4329 23.6292 61.2184 23.4232 61.2184 23.1829C61.2184 23.0628 61.2613 22.771 61.3471 22.3076C61.4501 21.8442 61.5788 21.2692 61.7333 20.5826C61.9049 19.8789 62.0937 19.0894 62.2997 18.2141C62.5056 17.3387 62.7202 16.4462 62.9433 15.5366C63.1836 14.6097 63.4153 13.6915 63.6384 12.7818C63.8787 11.8721 64.1019 11.0311 64.3078 10.2588L63.072 10.2073C62.5571 10.173 62.1881 10.0271 61.965 9.76961C61.7419 9.51216 61.6303 9.10881 61.6303 8.55958C61.6303 8.2678 61.6561 7.99318 61.7075 7.73573C61.759 7.47828 61.8277 7.25515 61.9135 7.06635C62.0165 6.87755 62.1281 6.73166 62.2482 6.62868C62.3855 6.5257 62.5314 6.48279 62.6859 6.49995L69.3539 6.96337C69.474 6.96337 69.577 7.02344 69.6628 7.14359C69.7487 7.26373 69.8259 7.42679 69.8946 7.63275C69.9632 7.83871 70.0233 8.07042 70.0748 8.32787C70.1434 8.58532 70.2035 8.85136 70.255 9.12598C70.3751 9.69237 70.5296 10.439 70.7184 11.3658C70.9072 12.2755 71.1132 13.2624 71.3363 14.3265C71.5594 15.3735 71.7825 16.4376 72.0057 17.5189C72.246 18.5831 72.4519 19.5528 72.6236 20.4282L73.2414 20.5054C73.4817 20.5397 73.6448 20.7543 73.7306 21.149C73.8336 21.5266 73.8851 21.9471 73.8851 22.4106C73.8851 22.7367 73.8422 22.9941 73.7564 23.1829C73.6705 23.3717 73.5418 23.509 73.3702 23.5948C73.2157 23.6978 73.0269 23.7579 72.8038 23.7751C72.5806 23.7922 72.3318 23.8008 72.0572 23.8008C71.7654 23.8008 71.4822 23.7836 71.2076 23.7493C70.9329 23.715 70.6497 23.6549 70.358 23.5691C70.1005 23.5004 69.886 23.3631 69.7143 23.1572C69.5599 22.9512 69.4226 22.7023 69.3024 22.4106C69.1994 22.1188 69.1136 21.8013 69.045 21.458C68.9763 21.0975 68.8991 20.7371 68.8133 20.3767C68.4185 20.3767 68.0151 20.3767 67.6032 20.3767C67.1913 20.3595 66.685 20.3509 66.0842 20.3509C66.0156 20.3509 65.9384 20.3509 65.8525 20.3509C65.7839 20.3509 65.7067 20.3509 65.6208 20.3509C65.535 20.3509 65.432 20.3595 65.3119 20.3767C65.2776 20.5655 65.2432 20.7886 65.2089 21.0461C65.1746 21.2863 65.1317 21.5438 65.0802 21.8184C65.0459 22.0759 65.0029 22.3247 64.9515 22.565C64.9171 22.8053 64.8742 23.0027 64.8227 23.1572C64.7197 23.5176 64.5739 23.7579 64.3851 23.878C64.2134 24.0153 63.9045 24.084 63.4582 24.084ZM68.4271 17.6734C68.3241 17.0727 68.2211 16.4977 68.1181 15.9485C68.0323 15.3993 67.9379 14.8672 67.8349 14.3523C67.7491 13.8202 67.6547 13.2881 67.5517 12.7561C67.4659 12.2068 67.3715 11.6319 67.2685 11.0311C67.1141 11.7863 66.9682 12.4643 66.8309 13.065C66.6936 13.6657 66.5648 14.2235 66.4447 14.7385C66.3245 15.2534 66.213 15.7511 66.11 16.2317C66.007 16.6951 65.9126 17.1757 65.8268 17.6734H68.4271Z" fill="#292938"/>
<path d="M77.9104 23.7751C77.55 23.7751 77.138 23.715 76.6746 23.5948C76.2112 23.4747 75.7735 23.2344 75.3616 22.874C74.9497 22.5135 74.6064 21.9986 74.3318 21.3293C74.0572 20.6599 73.9199 19.776 73.9199 18.6775C73.9199 18.0253 73.9199 17.2872 73.9199 16.4634C73.9199 15.6224 73.9113 14.7385 73.8941 13.8116C73.8941 12.8676 73.8941 11.9065 73.8941 10.9281C73.8941 9.93266 73.8941 8.9715 73.8941 8.04467C73.8941 7.77006 74.04 7.48686 74.3318 7.19508C74.6407 6.9033 75.1127 6.75741 75.7478 6.75741C76.3142 6.75741 76.7604 6.89472 77.0865 7.16933C77.4127 7.42679 77.5757 7.91595 77.5757 8.63682V16.6436C77.5757 17.3645 77.6015 17.9566 77.6529 18.42C77.7216 18.8834 77.816 19.2525 77.9361 19.5271C78.0735 19.8017 78.2279 19.9991 78.3996 20.1192C78.5884 20.2222 78.7943 20.2737 79.0174 20.2737C79.2406 20.2737 79.4637 20.205 79.6868 20.0677C79.91 19.9133 80.1159 19.6901 80.3047 19.3984C80.5107 19.1066 80.6737 18.7376 80.7939 18.2913C80.9312 17.8279 81.0084 17.2787 81.0256 16.6436C81.0427 16.1802 81.0513 15.6224 81.0513 14.9702C81.0513 14.3008 81.0513 13.5799 81.0513 12.8076C81.0513 12.0352 81.0427 11.2285 81.0256 10.3875C81.0256 9.52932 81.0256 8.67972 81.0256 7.83871C81.0256 7.63275 81.0857 7.46111 81.2058 7.3238C81.3259 7.16933 81.4718 7.05777 81.6435 6.98911C81.8323 6.9033 82.0382 6.84323 82.2614 6.8089C82.4845 6.77457 82.6904 6.75741 82.8792 6.75741C83.068 6.75741 83.2654 6.77457 83.4714 6.8089C83.6773 6.84323 83.8661 6.91188 84.0378 7.01486C84.2266 7.10068 84.3725 7.23799 84.4755 7.42679C84.5956 7.59842 84.6557 7.83871 84.6557 8.14765C84.6557 10.4819 84.6471 12.8676 84.6299 15.3049C84.6128 17.7249 84.6042 20.1621 84.6042 22.6165C84.6042 22.9083 84.5527 23.1486 84.4497 23.3374C84.3467 23.509 84.2094 23.6463 84.0378 23.7493C83.8661 23.8523 83.6773 23.9209 83.4714 23.9553C83.2826 23.9896 83.0852 24.0068 82.8792 24.0068C82.3815 24.0068 81.9782 23.9124 81.6692 23.7236C81.3774 23.5348 81.2315 23.1915 81.2315 22.6938C81.2315 22.6594 81.2401 22.5736 81.2573 22.4363C81.2745 22.299 81.2916 22.1445 81.3088 21.9729C81.3431 21.8013 81.3689 21.6382 81.386 21.4837C81.4032 21.3293 81.4118 21.2263 81.4118 21.1748C81.2916 21.4322 81.12 21.7154 80.8969 22.0244C80.6737 22.3162 80.4163 22.5994 80.1245 22.874C79.8327 23.1314 79.498 23.346 79.1204 23.5176C78.7428 23.6892 78.3395 23.7751 77.9104 23.7751Z" fill="#292938"/>
<path d="M91.546 6.39697C92.0437 6.39697 92.5243 6.43988 92.9877 6.5257C93.4683 6.61152 93.8974 6.74883 94.275 6.93762C94.6526 7.10926 94.9615 7.33239 95.2018 7.607C95.4592 7.86445 95.6137 8.18198 95.6652 8.55958L96.1801 11.8292C96.2488 12.224 96.2488 12.5415 96.1801 12.7818C96.1286 13.0221 96.0085 13.2109 95.8197 13.3482C95.648 13.4855 95.4078 13.5799 95.0988 13.6314C94.807 13.6829 94.4552 13.7086 94.0433 13.7086C93.803 13.7086 93.5455 13.6657 93.2709 13.5799C92.9963 13.4769 92.859 13.2796 92.859 12.9878L92.5243 10.439C92.49 10.1644 92.3784 9.94983 92.1896 9.79535C92.018 9.62372 91.8206 9.5379 91.5975 9.5379C91.134 9.5379 90.7393 9.71812 90.4132 10.0786C90.1042 10.439 89.8468 10.9281 89.6408 11.546C89.452 12.1639 89.3147 12.8848 89.2289 13.7086C89.1431 14.5325 89.1002 15.4078 89.1002 16.3347C89.1002 16.9182 89.1259 17.5018 89.1774 18.0853C89.2289 18.6689 89.3404 19.201 89.5121 19.6816C89.7009 20.145 89.9669 20.5226 90.3102 20.8143C90.6535 21.1061 91.1083 21.252 91.6747 21.252C92.0694 21.252 92.3956 21.149 92.653 20.9431C92.9105 20.7199 93.1164 20.4453 93.2709 20.1192C93.4254 19.7931 93.5369 19.4498 93.6056 19.0894C93.6742 18.7118 93.7086 18.36 93.7086 18.0339H92.55C92.3269 18.0339 92.1553 17.9824 92.0351 17.8794C91.915 17.7764 91.8206 17.6563 91.7519 17.5189C91.6833 17.3645 91.6404 17.2014 91.6232 17.0298C91.606 16.8582 91.5975 16.7123 91.5975 16.5921C91.5975 16.2145 91.6661 15.9227 91.8034 15.7168C91.9407 15.4936 92.1124 15.3821 92.3183 15.3821H92.962L94.1205 15.3563H95.2533C95.3391 15.3563 95.4163 15.3563 95.485 15.3563C95.5708 15.3563 95.6566 15.3649 95.7424 15.3821C95.9827 15.4164 96.1715 15.5194 96.3088 15.691C96.4462 15.8627 96.5491 16.06 96.6178 16.2832C96.7036 16.5063 96.7551 16.7466 96.7723 17.004C96.7894 17.2443 96.798 17.4589 96.798 17.6477C96.798 18.5573 96.7036 19.4155 96.5148 20.2222C96.3432 21.0289 96.0428 21.7326 95.6137 22.3333C95.1846 22.934 94.6268 23.406 93.9403 23.7493C93.2537 24.1097 92.4041 24.29 91.3915 24.29C90.293 24.29 89.3576 24.0497 88.5853 23.5691C87.8301 23.0885 87.2122 22.4706 86.7316 21.7154C86.251 20.9602 85.8992 20.1021 85.676 19.1409C85.4701 18.1797 85.3671 17.2272 85.3671 16.2832C85.3671 15.6138 85.3928 14.9101 85.4443 14.1721C85.4958 13.4169 85.5988 12.6702 85.7533 11.9322C85.9077 11.1942 86.1223 10.4991 86.3969 9.84684C86.6715 9.17747 87.0405 8.58532 87.5039 8.07042C87.9674 7.55551 88.5252 7.15217 89.1774 6.86039C89.8468 6.55144 90.6363 6.39697 91.546 6.39697Z" fill="#292938"/>
<path d="M101.469 23.7751C101.109 23.7751 100.697 23.715 100.234 23.5948C99.7702 23.4747 99.3325 23.2344 98.9206 22.874C98.5087 22.5135 98.1654 21.9986 97.8908 21.3293C97.6162 20.6599 97.4788 19.776 97.4788 18.6775C97.4788 18.0253 97.4788 17.2872 97.4788 16.4634C97.4788 15.6224 97.4703 14.7385 97.4531 13.8116C97.4531 12.8676 97.4531 11.9065 97.4531 10.9281C97.4531 9.93266 97.4531 8.9715 97.4531 8.04467C97.4531 7.77006 97.599 7.48686 97.8908 7.19508C98.1997 6.9033 98.6717 6.75741 99.3068 6.75741C99.8732 6.75741 100.319 6.89472 100.646 7.16933C100.972 7.42679 101.135 7.91595 101.135 8.63682V16.6436C101.135 17.3645 101.16 17.9566 101.212 18.42C101.281 18.8834 101.375 19.2525 101.495 19.5271C101.632 19.8017 101.787 19.9991 101.959 20.1192C102.147 20.2222 102.353 20.2737 102.576 20.2737C102.8 20.2737 103.023 20.205 103.246 20.0677C103.469 19.9133 103.675 19.6901 103.864 19.3984C104.07 19.1066 104.233 18.7376 104.353 18.2913C104.49 17.8279 104.567 17.2787 104.585 16.6436C104.602 16.1802 104.61 15.6224 104.61 14.9702C104.61 14.3008 104.61 13.5799 104.61 12.8076C104.61 12.0352 104.602 11.2285 104.585 10.3875C104.585 9.52932 104.585 8.67972 104.585 7.83871C104.585 7.63275 104.645 7.46111 104.765 7.3238C104.885 7.16933 105.031 7.05777 105.202 6.98911C105.391 6.9033 105.597 6.84323 105.82 6.8089C106.043 6.77457 106.249 6.75741 106.438 6.75741C106.627 6.75741 106.824 6.77457 107.03 6.8089C107.236 6.84323 107.425 6.91188 107.597 7.01486C107.786 7.10068 107.931 7.23799 108.034 7.42679C108.155 7.59842 108.215 7.83871 108.215 8.14765C108.215 10.4819 108.206 12.8676 108.189 15.3049C108.172 17.7249 108.163 20.1621 108.163 22.6165C108.163 22.9083 108.112 23.1486 108.009 23.3374C107.906 23.509 107.768 23.6463 107.597 23.7493C107.425 23.8523 107.236 23.9209 107.03 23.9553C106.842 23.9896 106.644 24.0068 106.438 24.0068C105.94 24.0068 105.537 23.9124 105.228 23.7236C104.936 23.5348 104.791 23.1915 104.791 22.6938C104.791 22.6594 104.799 22.5736 104.816 22.4363C104.833 22.299 104.851 22.1445 104.868 21.9729C104.902 21.8013 104.928 21.6382 104.945 21.4837C104.962 21.3293 104.971 21.2263 104.971 21.1748C104.851 21.4322 104.679 21.7154 104.456 22.0244C104.233 22.3162 103.975 22.5994 103.683 22.874C103.392 23.1314 103.057 23.346 102.679 23.5176C102.302 23.6892 101.898 23.7751 101.469 23.7751Z" fill="#292938"/>
<path d="M112.53 20.248C112.668 20.5569 112.899 20.8401 113.226 21.0975C113.552 21.3378 113.989 21.458 114.539 21.458C115.088 21.458 115.508 21.2949 115.8 20.9688C116.109 20.6427 116.263 20.2565 116.263 19.8103C116.263 19.4327 116.083 19.098 115.723 18.8062C115.362 18.4973 114.916 18.1883 114.384 17.8794C113.852 17.5704 113.268 17.2357 112.633 16.8753C111.998 16.5149 111.415 16.0944 110.883 15.6138C110.351 15.1332 109.904 14.5754 109.544 13.9403C109.184 13.2881 109.003 12.5244 109.003 11.649C109.003 10.8938 109.141 10.1987 109.415 9.56365C109.707 8.9286 110.093 8.37936 110.574 7.91595C111.071 7.45253 111.655 7.0921 112.324 6.83464C113.011 6.57719 113.749 6.44846 114.539 6.44846C115.448 6.44846 116.246 6.61152 116.933 6.93762C117.619 7.26373 118.177 7.66708 118.606 8.14765C119.053 8.61107 119.361 9.11739 119.533 9.66663C119.705 10.1987 119.739 10.6793 119.636 11.1084L119.224 12.7046C119.19 12.859 119.095 13.0049 118.941 13.1422C118.804 13.2624 118.632 13.3654 118.426 13.4512C118.22 13.537 117.997 13.5885 117.757 13.6057C117.534 13.6228 117.319 13.6057 117.113 13.5542C116.821 13.4684 116.547 13.331 116.289 13.1422C116.032 12.9534 115.937 12.7389 116.006 12.4986L116.341 11.1084C116.392 10.9024 116.375 10.705 116.289 10.5162C116.203 10.3103 116.075 10.13 115.903 9.97557C115.749 9.8211 115.56 9.69237 115.337 9.58939C115.114 9.48641 114.873 9.43492 114.616 9.43492C114.067 9.43492 113.603 9.65805 113.226 10.1043C112.848 10.5334 112.659 11.074 112.659 11.7263C112.659 12.3098 112.839 12.799 113.2 13.1937C113.577 13.5885 114.032 13.9489 114.564 14.275C115.114 14.584 115.706 14.8929 116.341 15.2019C116.993 15.4937 117.585 15.8369 118.117 16.2317C118.666 16.6264 119.121 17.0899 119.482 17.6219C119.859 18.154 120.048 18.8148 120.048 19.6043C120.048 20.3252 119.894 20.9774 119.585 21.561C119.276 22.1274 118.855 22.6165 118.323 23.0284C117.808 23.4232 117.207 23.7322 116.521 23.9553C115.834 24.1784 115.114 24.29 114.358 24.29C113.843 24.29 113.337 24.2213 112.839 24.084C112.359 23.9639 111.921 23.8008 111.526 23.5948C111.132 23.3889 110.788 23.1486 110.497 22.874C110.222 22.5994 110.025 22.3162 109.904 22.0244L108.926 19.7073C108.857 19.5528 108.814 19.3726 108.797 19.1666C108.797 18.9607 108.823 18.7547 108.875 18.5488C108.943 18.3428 109.055 18.154 109.209 17.9824C109.364 17.8107 109.561 17.6734 109.801 17.5704C110.196 17.416 110.557 17.3988 110.883 17.5189C111.226 17.6391 111.441 17.7936 111.526 17.9824L112.53 20.248Z" fill="#292938"/>
<path d="M120.419 10.0528C120.264 10.0528 120.127 10.0013 120.007 9.89834C119.904 9.79535 119.81 9.65805 119.724 9.48641C119.655 9.31477 119.595 9.12598 119.544 8.92001C119.509 8.69689 119.492 8.47376 119.492 8.25064C119.492 7.85587 119.561 7.5126 119.698 7.22082C119.853 6.92904 120.041 6.78315 120.264 6.78315C120.47 6.78315 120.788 6.78315 121.217 6.78315C121.646 6.78315 122.127 6.78315 122.659 6.78315C123.191 6.78315 123.749 6.78315 124.332 6.78315C124.933 6.78315 125.499 6.78315 126.031 6.78315C126.563 6.78315 127.044 6.78315 127.473 6.78315C127.902 6.76599 128.22 6.75741 128.426 6.75741C128.563 6.75741 128.683 6.8089 128.786 6.91188C128.889 7.01486 128.975 7.15217 129.044 7.3238C129.112 7.49544 129.164 7.69282 129.198 7.91595C129.232 8.13907 129.25 8.35362 129.25 8.55958C129.25 8.90285 129.181 9.21179 129.044 9.48641C128.906 9.76103 128.675 9.89834 128.348 9.89834C128.108 9.89834 127.851 9.9155 127.576 9.94983C127.319 9.96699 126.915 9.99273 126.366 10.0271C126.332 12.1382 126.323 14.2407 126.34 16.3347C126.375 18.4115 126.392 20.5054 126.392 22.6165C126.392 22.9083 126.349 23.14 126.263 23.3116C126.194 23.4833 126.083 23.612 125.928 23.6978C125.774 23.7836 125.585 23.8351 125.362 23.8523C125.156 23.8866 124.924 23.9038 124.667 23.9038C124.118 23.9038 123.646 23.7836 123.251 23.5434C122.856 23.3202 122.659 22.9855 122.659 22.5393C122.659 20.514 122.676 18.4372 122.71 16.3089C122.745 14.1806 122.745 12.0953 122.71 10.0528H120.419Z" fill="#292938"/>
<path d="M135.069 24.29C133.095 24.29 131.568 23.5863 130.487 22.1788C129.422 20.7543 128.89 18.7891 128.89 16.2832C128.89 14.9444 128.968 13.6829 129.122 12.4986C129.294 11.2972 129.603 10.2502 130.049 9.35768C130.495 8.46518 131.104 7.76147 131.877 7.24657C132.666 6.7145 133.688 6.44846 134.94 6.44846C136.193 6.44846 137.215 6.66301 138.004 7.0921C138.811 7.50402 139.437 8.08758 139.884 8.84278C140.347 9.59797 140.665 10.4991 140.836 11.546C141.008 12.5758 141.094 13.7086 141.094 14.9444C141.094 16.472 140.999 17.8193 140.81 18.9864C140.622 20.1536 140.296 21.1319 139.832 21.9214C139.386 22.6938 138.777 23.2773 138.004 23.6721C137.232 24.084 136.254 24.29 135.069 24.29ZM132.752 16.2059C132.752 17.682 132.941 18.8663 133.319 19.7588C133.696 20.6513 134.288 21.0975 135.095 21.0975C135.507 21.0975 135.85 20.9602 136.125 20.6856C136.417 20.411 136.648 20.0248 136.82 19.5271C136.992 19.0293 137.112 18.4286 137.18 17.7249C137.249 17.0212 137.283 16.2317 137.283 15.3563C137.283 14.687 137.249 14.0262 137.18 13.374C137.129 12.7046 137.017 12.1124 136.846 11.5975C136.674 11.0826 136.434 10.6707 136.125 10.3618C135.833 10.0356 135.447 9.87259 134.966 9.87259C134.486 9.87259 134.099 10.0614 133.808 10.439C133.516 10.7994 133.293 11.28 133.138 11.8807C132.984 12.4814 132.881 13.1594 132.829 13.9146C132.778 14.6698 132.752 15.4336 132.752 16.2059Z" fill="#292938"/>
<path d="M67.32 47.9413C65.432 47.9413 63.9817 47.169 62.9691 45.6242C61.9736 44.0795 61.4758 41.8483 61.4758 38.9305C61.4758 35.9955 61.9822 33.7642 62.9948 32.2367C64.0246 30.692 65.5007 29.9196 67.423 29.9196C68.6245 29.9196 69.6028 30.2114 70.358 30.7949C71.1303 31.3785 71.5937 32.1852 71.7482 33.215L72.2889 36.8451C72.3918 37.6175 71.7997 38.0036 70.5124 38.0036C70.0834 38.0036 69.7658 37.9607 69.5599 37.8749C69.3539 37.7719 69.2252 37.6003 69.1737 37.36L68.5301 34.0389C68.4099 33.421 68.0666 33.112 67.5002 33.112C66.745 33.112 66.1701 33.6355 65.7753 34.6825C65.3977 35.7295 65.2089 37.2656 65.2089 39.2909C65.2089 41.2132 65.3891 42.612 65.7496 43.4874C66.1272 44.3627 66.7021 44.8004 67.4745 44.8004C67.9894 44.8004 68.4271 44.6373 68.7875 44.3112C69.1651 43.968 69.3539 43.5475 69.3539 43.0497C69.3539 42.2774 69.886 41.8912 70.9501 41.8912C71.4479 41.8912 71.7997 42.0113 72.0057 42.2516C72.2116 42.4747 72.3146 42.8609 72.3146 43.4101C72.3146 44.0624 72.1859 44.6631 71.9284 45.2123C71.6881 45.7616 71.3449 46.2421 70.8986 46.6541C70.4524 47.0488 69.9203 47.3578 69.3024 47.5809C68.7017 47.8212 68.0409 47.9413 67.32 47.9413Z" fill="#292938"/>
<path d="M76.7287 47.3749C76.3683 47.3749 75.9564 47.3149 75.493 47.1947C75.0295 47.0746 74.5919 46.8343 74.1799 46.4738C73.768 46.1134 73.4247 45.5985 73.1501 44.9291C72.8755 44.2597 72.7382 43.3758 72.7382 42.2774C72.7382 41.6251 72.7382 40.8871 72.7382 40.0633C72.7382 39.2222 72.7296 38.3383 72.7125 37.4115C72.7125 36.4675 72.7125 35.5063 72.7125 34.528C72.7125 33.5325 72.7125 32.5714 72.7125 31.6445C72.7125 31.3699 72.8583 31.0867 73.1501 30.7949C73.4591 30.5032 73.9311 30.3573 74.5661 30.3573C75.1325 30.3573 75.5788 30.4946 75.9049 30.7692C76.231 31.0267 76.394 31.5158 76.394 32.2367V40.2435C76.394 40.9643 76.4198 41.5565 76.4713 42.0199C76.5399 42.4833 76.6343 42.8523 76.7545 43.127C76.8918 43.4016 77.0463 43.5989 77.2179 43.7191C77.4067 43.8221 77.6126 43.8736 77.8358 43.8736C78.0589 43.8736 78.282 43.8049 78.5052 43.6676C78.7283 43.5131 78.9342 43.29 79.123 42.9982C79.329 42.7064 79.4921 42.3374 79.6122 41.8912C79.7495 41.4278 79.8267 40.8785 79.8439 40.2435C79.8611 39.7801 79.8697 39.2222 79.8697 38.57C79.8697 37.9007 79.8697 37.1798 79.8697 36.4074C79.8697 35.6351 79.8611 34.8284 79.8439 33.9874C79.8439 33.1292 79.8439 32.2796 79.8439 31.4386C79.8439 31.2326 79.904 31.061 80.0241 30.9237C80.1443 30.7692 80.2902 30.6576 80.4618 30.589C80.6506 30.5032 80.8566 30.4431 81.0797 30.4088C81.3028 30.3744 81.5088 30.3573 81.6976 30.3573C81.8864 30.3573 82.0838 30.3744 82.2897 30.4088C82.4957 30.4431 82.6845 30.5117 82.8561 30.6147C83.0449 30.7005 83.1908 30.8379 83.2938 31.0267C83.4139 31.1983 83.474 31.4386 83.474 31.7475C83.474 34.0818 83.4654 36.4675 83.4483 38.9047C83.4311 41.3248 83.4225 43.762 83.4225 46.2164C83.4225 46.5082 83.371 46.7485 83.268 46.9373C83.1651 47.1089 83.0277 47.2462 82.8561 47.3492C82.6845 47.4522 82.4957 47.5208 82.2897 47.5551C82.1009 47.5895 81.9035 47.6066 81.6976 47.6066C81.1998 47.6066 80.7965 47.5122 80.4875 47.3234C80.1958 47.1346 80.0499 46.7914 80.0499 46.2936C80.0499 46.2593 80.0585 46.1735 80.0756 46.0362C80.0928 45.8989 80.1099 45.7444 80.1271 45.5728C80.1614 45.4011 80.1872 45.2381 80.2043 45.0836C80.2215 44.9291 80.2301 44.8261 80.2301 44.7747C80.1099 45.0321 79.9383 45.3153 79.7152 45.6242C79.4921 45.916 79.2346 46.1992 78.9428 46.4738C78.651 46.7313 78.3164 46.9458 77.9388 47.1175C77.5612 47.2891 77.1578 47.3749 76.7287 47.3749Z" fill="#292938"/>
<path d="M90.3643 29.9968C90.862 29.9968 91.3426 30.0398 91.806 30.1256C92.2866 30.2114 92.7157 30.3487 93.0933 30.5375C93.4709 30.7091 93.7798 30.9323 94.0201 31.2069C94.2776 31.4643 94.432 31.7818 94.4835 32.1594L94.9984 35.4291C95.0671 35.8239 95.0671 36.1414 94.9984 36.3817C94.947 36.622 94.8268 36.8108 94.638 36.9481C94.4664 37.0854 94.2261 37.1798 93.9171 37.2313C93.6254 37.2828 93.2735 37.3085 92.8616 37.3085C92.6213 37.3085 92.3638 37.2656 92.0892 37.1798C91.8146 37.0768 91.6773 36.8794 91.6773 36.5876L91.3426 34.0389C91.3083 33.7642 91.1967 33.5497 91.0079 33.3952C90.8363 33.2236 90.6389 33.1378 90.4158 33.1378C89.9524 33.1378 89.5576 33.318 89.2315 33.6784C88.9226 34.0389 88.6651 34.528 88.4591 35.1459C88.2703 35.7638 88.133 36.4847 88.0472 37.3085C87.9614 38.1324 87.9185 39.0077 87.9185 39.9345C87.9185 40.5181 87.9442 41.1017 87.9957 41.6852C88.0472 42.2688 88.1588 42.8008 88.3304 43.2814C88.5192 43.7448 88.7852 44.1224 89.1285 44.4142C89.4718 44.706 89.9266 44.8519 90.493 44.8519C90.8878 44.8519 91.2139 44.7489 91.4713 44.5429C91.7288 44.3198 91.9348 44.0452 92.0892 43.7191C92.2437 43.393 92.3553 43.0497 92.4239 42.6893C92.4926 42.3117 92.5269 41.9598 92.5269 41.6337H91.3684C91.1452 41.6337 90.9736 41.5822 90.8535 41.4793C90.7333 41.3763 90.6389 41.2561 90.5703 41.1188C90.5016 40.9643 90.4587 40.8013 90.4415 40.6297C90.4244 40.458 90.4158 40.3121 90.4158 40.192C90.4158 39.8144 90.4844 39.5226 90.6217 39.3166C90.7591 39.0935 90.9307 38.982 91.1367 38.982H91.7803L92.9388 38.9562H94.0716C94.1574 38.9562 94.2347 38.9562 94.3033 38.9562C94.3891 38.9562 94.475 38.9648 94.5608 38.982C94.8011 39.0163 94.9899 39.1193 95.1272 39.2909C95.2645 39.4625 95.3675 39.6599 95.4361 39.883C95.5219 40.1062 95.5734 40.3465 95.5906 40.6039C95.6078 40.8442 95.6163 41.0587 95.6163 41.2475C95.6163 42.1572 95.5219 43.0154 95.3331 43.8221C95.1615 44.6288 94.8611 45.3325 94.432 45.9332C94.003 46.5339 93.4451 47.0059 92.7586 47.3492C92.0721 47.7096 91.2225 47.8898 90.2098 47.8898C89.1114 47.8898 88.1759 47.6495 87.4036 47.169C86.6484 46.6884 86.0305 46.0705 85.5499 45.3153C85.0693 44.5601 84.7175 43.7019 84.4944 42.7408C84.2884 41.7796 84.1854 40.827 84.1854 39.883C84.1854 39.2137 84.2112 38.51 84.2627 37.7719C84.3141 37.0167 84.4171 36.2701 84.5716 35.5321C84.7261 34.7941 84.9406 34.0989 85.2152 33.4467C85.4898 32.7773 85.8589 32.1852 86.3223 31.6703C86.7857 31.1554 87.3435 30.752 87.9957 30.4603C88.6651 30.1513 89.4546 29.9968 90.3643 29.9968Z" fill="#292938"/>
<path d="M99.4124 47.5037H98.9747C98.8889 47.5037 98.7687 47.5037 98.6143 47.5037C98.4769 47.5037 98.3311 47.4865 98.1766 47.4522L96.5804 47.4007C96.3401 47.3835 96.1341 47.2634 95.9625 47.0402C95.808 46.8171 95.7394 46.491 95.7565 46.0619C95.7565 45.753 95.7651 45.5041 95.7823 45.3153C95.8166 45.1265 95.8595 44.9806 95.911 44.8776C95.9796 44.7747 96.0655 44.7146 96.1684 44.6974C96.2886 44.6631 96.4431 44.6459 96.6319 44.6459H97.0438C97.0438 44.1825 97.0438 43.7191 97.0438 43.2557C97.061 42.7923 97.0695 42.3374 97.0695 41.8912L97.121 36.3302C97.121 35.8839 97.121 35.4291 97.121 34.9657C97.1382 34.5023 97.1468 34.0389 97.1468 33.5754H96.7606C95.9882 33.5754 95.6965 32.9318 95.8853 31.6445C95.9367 31.2326 96.0226 30.9151 96.1427 30.692C96.28 30.4517 96.4688 30.3229 96.7091 30.3058L101.343 30.1513C101.481 30.1513 101.601 30.2114 101.704 30.3315C101.807 30.4345 101.884 30.5804 101.935 30.7692C102.004 30.9408 102.047 31.1382 102.064 31.3613C102.098 31.5673 102.116 31.7561 102.116 31.9277C102.116 32.2882 102.03 32.6486 101.858 33.009C101.704 33.3523 101.446 33.5239 101.086 33.5239H100.854C100.854 33.9874 100.846 34.4508 100.828 34.9142C100.828 35.3776 100.828 35.841 100.828 36.3044L100.777 41.9169C100.777 42.3803 100.768 42.8438 100.751 43.3072C100.751 43.7706 100.751 44.234 100.751 44.6974H101.086C101.772 44.6974 102.116 45.0578 102.116 45.7787C102.116 45.9504 102.098 46.1392 102.064 46.3451C102.047 46.5511 102.004 46.7485 101.935 46.9373C101.884 47.1261 101.807 47.2719 101.704 47.3749C101.601 47.4951 101.481 47.5551 101.343 47.5551L99.4124 47.5037Z" fill="#292938"/>
<path d="M102.471 31.4386C102.471 31.2155 102.523 31.0352 102.626 30.8979C102.746 30.7435 102.892 30.6233 103.063 30.5375C103.235 30.4517 103.424 30.3916 103.63 30.3573C103.853 30.323 104.067 30.3058 104.273 30.3058C104.72 30.3058 105.097 30.3401 105.406 30.4088C105.732 30.4774 105.998 30.6491 106.204 30.9237C106.359 31.1125 106.505 31.3528 106.642 31.6445C106.796 31.9192 106.942 32.2109 107.08 32.5199C107.234 32.8288 107.38 33.1378 107.517 33.4467C107.655 33.7385 107.775 33.9959 107.878 34.2191C108.152 34.7855 108.41 35.3261 108.65 35.841C108.908 36.3388 109.156 36.8365 109.397 37.3343C109.637 37.8148 109.877 38.304 110.118 38.8017C110.375 39.2995 110.641 39.823 110.916 40.3722C110.881 40.0804 110.856 39.7886 110.838 39.4969C110.838 39.2051 110.838 38.9133 110.838 38.6215C110.838 37.9521 110.83 37.3171 110.813 36.7164C110.796 36.1156 110.778 35.5321 110.761 34.9657C110.761 34.3821 110.753 33.79 110.735 33.1893C110.718 32.5885 110.71 31.9535 110.71 31.2841C110.71 30.9408 110.881 30.6834 111.225 30.5117C111.568 30.3401 112.014 30.2543 112.563 30.2543C112.735 30.2543 112.932 30.2715 113.156 30.3058C113.379 30.3229 113.585 30.3744 113.773 30.4603C113.962 30.5289 114.125 30.6319 114.263 30.7692C114.4 30.9065 114.469 31.0867 114.469 31.3099C114.469 33.8329 114.417 36.3474 114.314 38.8532C114.211 41.3591 114.16 43.8736 114.16 46.3966C114.16 46.6712 114.108 46.8858 114.005 47.0402C113.902 47.1947 113.765 47.3063 113.593 47.3749C113.439 47.4436 113.25 47.4779 113.027 47.4779C112.821 47.4951 112.615 47.5037 112.409 47.5037C112.066 47.5037 111.748 47.4093 111.456 47.2205C111.165 47.0488 110.916 46.8257 110.71 46.5511C110.538 46.328 110.315 46.0018 110.04 45.5728C109.783 45.1265 109.5 44.6288 109.191 44.0795C108.899 43.5303 108.59 42.9553 108.264 42.3546C107.955 41.7367 107.655 41.1446 107.363 40.5782C107.071 39.9946 106.796 39.4625 106.539 38.982C106.299 38.5014 106.101 38.1152 105.947 37.8234C106.033 39.2995 106.084 40.7069 106.101 42.0456C106.136 43.3844 106.153 44.7918 106.153 46.2679C106.153 46.7656 105.973 47.1003 105.612 47.2719C105.269 47.4436 104.891 47.5294 104.479 47.5294C104.325 47.5294 104.136 47.5122 103.913 47.4779C103.69 47.4607 103.467 47.4178 103.244 47.3492C103.038 47.2805 102.857 47.1861 102.703 47.066C102.548 46.9287 102.471 46.757 102.471 46.5511V31.4386Z" fill="#292938"/>
<path d="M121.354 47.8898C119.38 47.8898 117.852 47.1861 116.771 45.7787C115.707 44.3541 115.175 42.3889 115.175 39.883C115.175 38.5443 115.252 37.2828 115.407 36.0985C115.578 34.897 115.887 33.8501 116.333 32.9576C116.78 32.065 117.389 31.3613 118.161 30.8464C118.951 30.3144 119.972 30.0483 121.225 30.0483C122.478 30.0483 123.499 30.2629 124.289 30.692C125.095 31.1039 125.722 31.6875 126.168 32.4426C126.632 33.1978 126.949 34.0989 127.121 35.1459C127.292 36.1757 127.378 37.3085 127.378 38.5443C127.378 40.0718 127.284 41.4192 127.095 42.5863C126.906 43.7534 126.58 44.7317 126.117 45.5213C125.67 46.2936 125.061 46.8772 124.289 47.2719C123.516 47.6839 122.538 47.8898 121.354 47.8898ZM119.037 39.8058C119.037 41.2819 119.226 42.4662 119.603 43.3587C119.981 44.2512 120.573 44.6974 121.38 44.6974C121.791 44.6974 122.135 44.5601 122.409 44.2855C122.701 44.0109 122.933 43.6247 123.104 43.127C123.276 42.6292 123.396 42.0285 123.465 41.3248C123.534 40.6211 123.568 39.8316 123.568 38.9562C123.568 38.2868 123.534 37.626 123.465 36.9738C123.413 36.3044 123.302 35.7123 123.13 35.1974C122.959 34.6825 122.718 34.2706 122.409 33.9616C122.118 33.6355 121.731 33.4725 121.251 33.4725C120.77 33.4725 120.384 33.6613 120.092 34.0389C119.801 34.3993 119.577 34.8799 119.423 35.4806C119.268 36.0813 119.165 36.7593 119.114 37.5145C119.062 38.2697 119.037 39.0334 119.037 39.8058Z" fill="#292938"/>
<path d="M127.824 33.6527C127.669 33.6527 127.532 33.6012 127.412 33.4982C127.309 33.3952 127.214 33.2579 127.129 33.0863C127.06 32.9146 127 32.7258 126.948 32.5199C126.914 32.2968 126.897 32.0736 126.897 31.8505C126.897 31.4557 126.966 31.1125 127.103 30.8207C127.257 30.5289 127.446 30.383 127.669 30.383C127.875 30.383 128.193 30.383 128.622 30.383C129.051 30.383 129.531 30.383 130.064 30.383C130.596 30.383 131.153 30.383 131.737 30.383C132.338 30.383 132.904 30.383 133.436 30.383C133.968 30.383 134.449 30.383 134.878 30.383C135.307 30.3659 135.625 30.3573 135.831 30.3573C135.968 30.3573 136.088 30.4088 136.191 30.5117C136.294 30.6147 136.38 30.752 136.448 30.9237C136.517 31.0953 136.569 31.2927 136.603 31.5158C136.637 31.7389 136.654 31.9535 136.654 32.1594C136.654 32.5027 136.586 32.8117 136.448 33.0863C136.311 33.3609 136.079 33.4982 135.753 33.4982C135.513 33.4982 135.256 33.5154 134.981 33.5497C134.723 33.5669 134.32 33.5926 133.771 33.6269C133.737 35.738 133.728 37.8406 133.745 39.9345C133.779 42.0113 133.797 44.1053 133.797 46.2164C133.797 46.5082 133.754 46.7399 133.668 46.9115C133.599 47.0831 133.488 47.2119 133.333 47.2977C133.179 47.3835 132.99 47.435 132.767 47.4522C132.561 47.4865 132.329 47.5037 132.072 47.5037C131.522 47.5037 131.05 47.3835 130.656 47.1432C130.261 46.9201 130.064 46.5854 130.064 46.1392C130.064 44.1139 130.081 42.0371 130.115 39.9088C130.149 37.7805 130.149 35.6951 130.115 33.6527H127.824Z" fill="#292938"/>
<path d="M137.567 33.6527C137.412 33.6527 137.275 33.6012 137.155 33.4982C137.052 33.3952 136.957 33.2579 136.872 33.0863C136.803 32.9146 136.743 32.7258 136.691 32.5199C136.657 32.2968 136.64 32.0736 136.64 31.8505C136.64 31.4557 136.709 31.1125 136.846 30.8207C137 30.5289 137.189 30.383 137.412 30.383C137.618 30.383 137.936 30.383 138.365 30.383C138.794 30.383 139.274 30.383 139.807 30.383C140.339 30.383 140.896 30.383 141.48 30.383C142.081 30.383 142.647 30.383 143.179 30.383C143.711 30.383 144.192 30.383 144.621 30.383C145.05 30.3659 145.368 30.3573 145.574 30.3573C145.711 30.3573 145.831 30.4088 145.934 30.5117C146.037 30.6147 146.123 30.752 146.191 30.9237C146.26 31.0953 146.312 31.2927 146.346 31.5158C146.38 31.7389 146.397 31.9535 146.397 32.1594C146.397 32.5027 146.329 32.8117 146.191 33.0863C146.054 33.3609 145.822 33.4982 145.496 33.4982C145.256 33.4982 144.999 33.5154 144.724 33.5497C144.466 33.5669 144.063 33.5926 143.514 33.6269C143.48 35.738 143.471 37.8406 143.488 39.9345C143.522 42.0113 143.54 44.1053 143.54 46.2164C143.54 46.5082 143.497 46.7399 143.411 46.9115C143.342 47.0831 143.231 47.2119 143.076 47.2977C142.922 47.3835 142.733 47.435 142.51 47.4522C142.304 47.4865 142.072 47.5037 141.815 47.5037C141.265 47.5037 140.793 47.3835 140.399 47.1432C140.004 46.9201 139.807 46.5854 139.807 46.1392C139.807 44.1139 139.824 42.0371 139.858 39.9088C139.892 37.7805 139.892 35.6951 139.858 33.6527H137.567Z" fill="#292938"/>
<path d="M150.013 47.5037H149.575C149.489 47.5037 149.369 47.5037 149.215 47.5037C149.078 47.5037 148.932 47.4865 148.777 47.4522L147.181 47.4007C146.941 47.3835 146.735 47.2634 146.563 47.0402C146.409 46.8171 146.34 46.491 146.357 46.0619C146.357 45.753 146.366 45.5041 146.383 45.3153C146.417 45.1265 146.46 44.9806 146.512 44.8776C146.58 44.7747 146.666 44.7146 146.769 44.6974C146.889 44.6631 147.044 44.6459 147.232 44.6459H147.644C147.644 44.1825 147.644 43.7191 147.644 43.2557C147.662 42.7923 147.67 42.3374 147.67 41.8912L147.722 36.3302C147.722 35.8839 147.722 35.4291 147.722 34.9657C147.739 34.5023 147.747 34.0389 147.747 33.5754H147.361C146.589 33.5754 146.297 32.9318 146.486 31.6445C146.537 31.2326 146.623 30.9151 146.743 30.692C146.881 30.4517 147.069 30.3229 147.31 30.3058L151.944 30.1513C152.081 30.1513 152.201 30.2114 152.304 30.3315C152.407 30.4345 152.485 30.5804 152.536 30.7692C152.605 30.9408 152.648 31.1382 152.665 31.3613C152.699 31.5673 152.716 31.7561 152.716 31.9277C152.716 32.2882 152.63 32.6486 152.459 33.009C152.304 33.3523 152.047 33.5239 151.686 33.5239H151.455C151.455 33.9874 151.446 34.4508 151.429 34.9142C151.429 35.3776 151.429 35.841 151.429 36.3044L151.377 41.9169C151.377 42.3803 151.369 42.8438 151.352 43.3072C151.352 43.7706 151.352 44.234 151.352 44.6974H151.686C152.373 44.6974 152.716 45.0578 152.716 45.7787C152.716 45.9504 152.699 46.1392 152.665 46.3451C152.648 46.5511 152.605 46.7485 152.536 46.9373C152.485 47.1261 152.407 47.2719 152.304 47.3749C152.201 47.4951 152.081 47.5551 151.944 47.5551L150.013 47.5037Z" fill="#292938"/>
</svg>
